<?xml version="1.0" encoding="UTF-8" standalone="no"?>
<!DOCTYPE svg PUBLIC "-//W3C//DTD SVG 1.1//EN" "http://www.w3.org/Graphics/SVG/1.1/DTD/svg11.dtd">
<svg width="100%" height="100%" viewBox="0 0 3000 2000" version="1.1" xmlns="http://www.w3.org/2000/svg" xmlns:xlink="http://www.w3.org/1999/xlink" xml:space="preserve" xmlns:serif="http://www.serif.com/" style="fill-rule:evenodd;clip-rule:evenodd;stroke-linejoin:round;stroke-miterlimit:2;">
    <g transform="matrix(18.374707,0,0,18.374707,-20373.775038,-14622.611024)">
        <path d="M1172.895,879.082C1174.116,866.956 1179.18,859.254 1180.84,854.5C1186.296,838.866 1179.973,824.77 1179.973,812.848C1184.856,812.929 1184.787,812.97 1188.083,812.97C1191.623,812.97 1195.092,812.909 1198.489,812.786C1201.887,812.664 1205.478,812.603 1209.262,812.603C1213.982,812.603 1218.204,812.868 1221.927,813.397C1225.65,813.926 1228.956,815.147 1231.845,817.059C1234.734,818.971 1236.88,821.291 1238.284,824.017C1239.688,826.743 1240.39,829.917 1240.39,833.538C1240.39,835.817 1240.125,837.984 1239.597,840.039C1239.068,842.094 1238.284,844.026 1237.247,845.837C1236.209,847.648 1234.978,849.235 1233.554,850.598C1232.13,851.961 1230.716,853.039 1229.312,853.833C1227.908,854.626 1226.311,855.308 1224.521,855.877C1222.73,856.447 1220.33,857.139 1217.319,857.953L1221.469,866.009C1222.812,868.573 1225.355,873.171 1229.098,879.803L1235.263,890.606C1235.589,891.176 1236.565,893.027 1238.193,896.161C1233.229,896.079 1229.953,896.038 1228.366,896.038C1226.413,896.038 1222.975,896.079 1218.051,896.161L1211.276,879.925C1210.096,877.443 1208.672,874.513 1207.004,871.136L1199.618,856.305C1198.886,854.921 1197.869,852.846 1196.567,850.079C1199.293,850.567 1201.775,850.811 1204.013,850.811C1207.512,850.811 1210.707,850.242 1213.596,849.102C1216.485,847.963 1218.702,846.203 1220.248,843.823C1221.795,841.443 1222.568,838.849 1222.568,836.041C1222.568,834.332 1222.232,832.745 1221.561,831.28C1220.889,829.815 1219.76,828.574 1218.173,827.557C1216.586,826.54 1214.694,825.889 1212.497,825.604C1210.3,825.319 1208.102,825.177 1205.905,825.177C1204.684,825.177 1188.611,824.454 1186.495,824.495C1184.379,824.536 1180.89,812.483 1193.094,812.928L1191.989,850.384L1191.913,857.575C1190.408,857.575 1177.534,879.001 1172.895,879.082Z" style="fill:rgb(91,31,255);fill-rule:nonzero;"/>
    </g>
    <g transform="matrix(18.374707,0,0,18.374707,-20776.548289,-14779.910803)">
        <g transform="matrix(125,0,0,125,1223.300133,896.160519)">
        </g>
        <text x="1165.073px" y="896.161px" style="font-family:'ErasITC-Demi', 'Eras Demi ITC', sans-serif;font-size:125px;fill:rgb(255,92,43);">J</text>
    </g>
</svg>
