<svg xmlns="http://www.w3.org/2000/svg" id="Capa_2" data-name="Capa 2" viewBox="0 0 1366 768"><defs><style>.cls-1{fill:#dd0029;stroke-width:0}</style></defs><path d="m605.41 180.09-4.82 1.04h-4.87l-2.93 4 2.06 4.61.22 4.68 1 4.45 2.37 4.08 1.19 4.41-.39 4.76.94 4.45.94 4.45.48 4.53.88 4.45 1.89 4.3-.5 4.68 1.69 4.35.18 4.57 1.88 4.36.08 4.57-.17 4.6 1.1 4.47.76 4.5.07 4.57.12 4.56-1.01 4.63.15 4.55.43 4.53 2.24 4.42.06 4.56-.02 4.57-1.18 4.62.75 4.52-.54 4.59 1.56 4.48-.73 4.6 1.68 4.46-.93 4.62 1.51 4.47-1.74 4.67.79 4.51 1.39 4.46-.64 4.62 2.25 4.37.41 4.52-1.18 4.68.37 4.54.45 4.53.25 4.56 2.71 4.22.61 4.49-.92 4.73.32 4.57 2.92 4.08.08 4.61.08 4.62.37 4.59 2.47 4.08-.18 4.76 2.24 3.87 1.1 4.3 3.13 3.21 2.06 3.85 3.13 3.01 2.48 3.78 4.05 1.89 4 1.71 3.78 2.05 3.98 1.72 4.55.58 4.51.21 4.58 1.31 4.72-.39 4.19-2.26 3.13-3.52 3.87-2.44 2.24-3.99 3.24-3.38 2.11-4.11-.42-4.96 2.43-4 .47-4.54 1.23-4.38-.14-4.59.35-4.5.63-4.5 1.57-4.5-1.26-4.57 1.16-4.56-1-4.53.4-4.58-1.35-4.47.21-4.59-.82-4.49-.13-4.56-.95-4.47.53-4.67-2.07-4.29-1.14-4.42 1.07-4.8-1-4.45-2.63-4.11-.64-4.51-.12-4.62-1.87-4.24-.34-4.6-.74-4.5-.51-4.58-2.7-4-.96-4.46-.06-4.72-1.86-4.2-.49-4.62-2.27-4.08-1.29-4.37-1.11-4.44-1.02-4.47-3.24-3.69-1.3-4.37-.39-4.73-3.09-3.68-1.28-4.39-.52-4.73-3.82-3.32-1.61-4.26-.72-4.68-1.45-4.38-2.99-3.61-3.1-3.52-1.92-4.12-1.59-4.33-1.73-4.27-3.61-3.11-1.57-4.43-3.89-2.82-1.88-4.28-2.95-3.46-3.22-3.21-3.01-3.44-4.03-2.21-3.73-2.49-4.02-1.93-4.27-1.35z" class="cls-1"/><path d="m605.48 175.73-4.56.4-4.41.95-3.34 2.59-4.26 2.66.63 4.44-.22 4.36 2.7 3.56 1.61 3.76-.67 4.34 2.66 3.51.09 4.13.48 4.55 2.5 4.13-.86 4.8 2.59 4.15-1.58 4.88 3.07 4.11.27 4.57.59 4.51-1.05 4.72 2.14 4.32-.88 4.67 2.13 4.35.29 4.55.18 4.55-1.4 4.73 2.6 4.42-.09 4.62.24 4.61-1.73 4.71 1.63 4.52-.58 4.64.6 4.58-.65 4.65 2.49 4.48-1.66 4.7.08 4.6.66 4.58 1.25 4.54.36 4.59.02 4.61-.4 4.63 1.51 4.51.11 4.61.09 4.6-1.09 4.72.38 4.59 2.45 4.39.7 4.54-.41 4.67-.68 4.74.93 4.52 1.01 4.27 1.67 4.15.87 4.26 1.13 4.22.27 4.38 1.07 4.23 1.65 4.07.01 4.47 1.96 3.93 1.02 4.22 1.73 3.98 1.95 3.89 3.15 3.04 3.48 2.88 3 3.3 3.67 2.54 3.92 2.09 3.53 2.97 4.34 1.29 4.38 1.01 4.44.74 4.82 1.38 4.77-1.25 4.74-1.11 4.55-1.85 2.82-4.31 4.4-2.23 1.75-4.64 4.39-2.51-.2-5.02 2.08-3.87 2.3-3.92.14-4.52 2.24-4.11.87-4.41-.38-4.51-.89-4.5.24-4.36-.19-4.38 2.18-4.39-2.35-4.33.58-4.41-.14-4.38.27-4.42-.08-4.41-1.53-4.25.31-4.46-.57-4.36-1.92-4.15.66-4.55-.72-4.34-2.63-3.99 1.13-4.69-2.25-4.03-.15-4.46-1.19-4.23-1.49-4.17.06-4.52-1.11-4.26-2.01-4.02-1.14-4.24.37-4.65-3.03-3.73-1.11-4.54-.84-4.62-.03-4.89-3.47-3.82-.8-4.65-.76-4.68-1.27-4.52-2.93-3.93-.71-4.72-2.3-4.13-.13-4.98-3.68-3.57-1.31-4.52-1.8-4.34-1.8-4.34-1.21-4.61-1.76-4.38-3.51-3.52-1.98-4.25-2.51-3.97-2.38-4.03-.9-4.94-2.24-4.18-3.48-3.34-3.08-3.31-1.33-4.69-3.96-2.57-2.22-4.17-4.11-2.23-3.72-2.57-4.05-1.96-4.27-1.25-3.77-1.53-4.03-.42-4.13 1.84.84 4.31 3.16 2.14 3.97.16 1.42.4-.2.82 1.17-.56 2.85 1.45 2.22-.56-.11.54.83.54 2.79 2.96 3.34 2.17 3.03 2.61 2.67 2.99 2.49 3.75 3.4 3.09 1.33 4.51 2.89 3.47 1.58 4.27 3.89 2.97 1.53 4.28 2.77 3.65.72 4.64.91 4.52 3.15 3.69 2.6 3.97 2.01 4.23.55 4.82.84 4.67 3.68 3.59 1.74 4.35.98 4.61 1.36 4.47 1.61 4.39.92 4.61.48 4.73 1.62 4.29 1.84 4.23 1.12 4.44 2.68 4.01 1.25 4.42.19 4.69.57 4.58.32 4.63 1.25 4.4.98 4.47 1.97 4.25-.23 4.72 2.88 4.09.79 4.41.02 4.54.65 4.43.94 4.37.34 4.47.49 4.44.93 4.4-.38 4.53.59 4.42.2 4.46 1.18 4.41-.4 4.49-.87 4.64.84 4.62 1.48 4.68-.92 4.62.23 4.71-2.35 4.37-1.18 4.45-1.51 4.34-.79 4.54.2 4.13-1.88 3.38-3.22 2.58-.3 2.06-.58 1.01-3.45 1.54-.3.91-1.37 1.23-.85 1.71-1.56-.06-1.43.01-1.41 1.33-1.54.75-1.22.16-3.9-.82-.88-.75-.32 2.21-2.14-.2-4.06-2.52-4.08-1.01-4.26-.88-3.58-2.38-3.38-2.6-2.69-3.33-2.68-3.86-3.93-3.1-2.04-4.38-.08-5.04-3.34-3.96-.98-4.44.48-4.78-.84-4.44-.81-4.44-2.3-4.17-.66-4.49-1.57-4.34 1.35-4.79-.34-4.51-1.2-4.41.18-4.57-2.65-4.28 1.54-4.7-.93-4.45.51-4.58-1.38-4.44-.39-4.51-1.18-4.46-.42-4.52-.56-4.51 1.59-4.62.1-4.55-.55-4.51.17-4.54-1.91-4.43 1.17-4.6-.87-4.44-1.37-4.42 1.02-4.55-1.78-4.38 1.31-4.59-.95-4.43.94-4.57-1.12-4.42-1.11-4.4-.02-4.51-.06-4.51-1.16-4.38-.38-4.47.27-4.56-2.41-4.2-.73-4.42.3-4.58.29-4.6-1.28-4.34-1.64-4.26-.31-4.51-1.38-4.3-1.45-4.26.84-4.82-2.24-4.07-.06-4.64-2.42-3.99-2.05-3.26 2.13-3.1 3.39-.6 4.02-1.35 4.11-1.1-1.22-4.13zM948.27 442.56l-2.73-3.7-1.85-4.3-3.36-3.21-2.73-3.69-2.18-4.28-3.53-3.02-4.26-2.17-3.48-2.98-3.44-3.03-3.81-2.56-3.47-3.04-3.8-2.59-4.39-1.66-3.09-3.73-4.58-1.29-3.72-2.74-3.9-2.43-3.75-2.73-4.18-1.94-4.59-1.16-4.24-1.82-3.55-3.13-4.01-2.26-3.7-2.83-4.67-1.01-3.84-2.58-4.38-1.58-3.74-2.71-2.52-2.47-4.34-2.14-2.15-4.29-2.71-3.68-2.2-4-1.56-4.28-.74-4.47.96-4.42.64-4.4 2.23-3.9.98-4.6 3.45-3.17 1.35-4.65 2.61-3.79 4.37-2.35 1.44-4.72 3.39-3.13 1.99-4.24 2.97-3.46 3.27-3.28 3.41-3.27 1.04-4.71 1.68-4.24 3.62-3.42.98-4.57-.43-4.83 2.46-4.15-.93-4.68.71-4.49-.02-4.55-.19-4.57-1.8-4.29.51-4.83-1.44-4.38-2.51-3.96-1.64-4.26-1.55-4.35-2.53-3.86-2.59-3.63-1.96-4.11-3.41-3-1.86-4.4-3.69-2.7-4.43-1.74-3.42-2.82-2.7-3.86-4.1-1.94-4.06-1.91-3.42-3.02-4.48-1.08-4.11-1.72-3.4-3.34-4.18-1.64-4.38-1.08-4.21-1.54-4.35-1.08-4.18-1.67-4.17-1.8-4.39-.99-4.42-.84-4.55-.1-4.5-.19-4.45-.47-4.4-.95-4.47-.35h-4.48l-4.47-.22-4.48-.81-4.46.95-4.56-1.31-4.47.72-4.29 1.98-4.6-.62-4.59-.03-4.39 1.09-3.77 3.25-5.04-.15-4.16 2.44-2.23 4.53-3.64 2.95-2.86 3.79-.71 4.74-.25 4.61-2.06 4.48.59 4.7 1.66 4.42.44 4.64.34 4.66 2.79 4.06.84 4.54.83 4.54.12 4.71 2.18 4.22 1.02 4.5-.46 4.85 1.68 4.34 2.61 4.12-1.11 5 1.46 4.39 2.97 4.01v4.73l.54 4.61 1.18 4.44 1.11 4.46.55 4.49 1.56 4.25 2.49 4.1v4.61l.78 4.45-.46 4.64.51 4.48.75 4.45.99 4.42.68 4.46.56 4.48.65 4.47.74 4.46 1.55 4.38-1.99 4.73 1.84 4.34.3 4.5.89 4.44-1.05 4.64 2.33 4.3.7 4.47-.77 4.61.07 4.53 2.2 4.31-1.01 4.66 1.37 4.4.92 4.44-.81 4.65.39 4.51 1.13 4.42.68 4.47 1.62 4.33-.78 4.69 1.85 4.28.86 4.44-.73 4.72 1.71 4.28.44 4.53 2.17 4.16-.41 4.72 1.75 4.23 1.31 4.33 1.68 4.22.86 4.45.25 4.67 1.21 4.38 1.3 4.37 1.81 4.18 2.14 4.03 2.89 3.65.52 4.81 3.63 3.18 1.11 4.63 2.39 3.91 4.21 2.52 2.83 3.48 3.14 3.19 2.94 3.43 2.86 3.68 3.9 2.4 4.2 1.82 3.6 3.03 4.97-.29 4.33 1.03 3.94 3.06 4.74-1.02 4.39 1.19 4.55-.21 4.39 1.43 4.55-.59 4.42 1.84 4.56-1.43 4.49.3 4.5.02 4.49-.45 4.51.25 4.58 1.13 4.51-.4 4.35-1.99 4.61.69 4.41-1.08 4.31-1.65 4.52-.26 4.68.48 4.41-1.03 4.31-1.45 4.57-.39 4.43-1.02 3.98-2.49 3.85-2.66 4.7-.19 4.45-1.04 3.54-3.19 4.63-.74 3.54-2.98 4.72-.85 3.73-2.63 3.68-2.68 2.6-4 4.49-1.71 2.21-4.18 3.86-2.62 2.74-3.64 1.84-4.19 1.42-4.29 1.08-4.31 2.37-3.97.39-4.49-.23-4.48v-4.45l-.37-4.45-1.27-4.29.33-4.78-3.24-3.61-.21-4.8-2.68-3.72-1.87-4.11-2.64-3.69-2.8-3.57ZM804.33 254.68l-3.85-3.06-2.78-4.41-1.22-5.03.77-5.28-1.7-4.52.84-4.64.63-4.61 3.24-4.91 6.04-.31 3.8-.74 4.2-1.02 4.01 1.57 3.32 2.72 2.63 3.34 2.55 3.41 2.28 3.68 1.31 4.96-.42 5.02-2.11 4.64-.59 4.78-2.76 3.35-3.92 1.84-4.17.8-4.16 1.07-4.2-.83-3.75-1.85Zm88.6 200.18-.26 4.73 1.89 4.42.42 4.74-2.91 4.14v4.9l-2.42 4.11-3.64 3.05-3.28 3.43-5.04.35-3.42 2.21-4.05.88-4.05-1.23-4.09-.02-3.43-2.51-3.55-2.19-3.56-2.39-1.05-4.3-2.48-3.37-2.46-3.44-.62-5.14-2.93-4.18-.68-5.1-2.32-4.43-3.61-3.89 1.23-4.92-.31-4.42.68-5.11 4.34-3.53 5.06-1.45 4.24-1.77 4.66.19 4.44-.46 4.59-.24 3.99 2.45 4.47.93 3.78 2.48 3.59 2.73 2.89 3.46 2.43 3.74 3.34 3.1 2.35 3.87 1.78 4.2Z" class="cls-1"/><path d="m889.42 454.78.65 4.82.37 4.83-2.01 4.59.56 5.02-3.33 3.66-3.01 3.49-2.52 4.43-4.93.87-5.26.09-5.37.59-4.51-.48-2.59-3.77-3.76-3.15-2.15-4.4-1.71-4.55-3.03-3.49-1.36-4.21-1.27-4.23-1.92-3.96.19-4.82-4-4.76 1.31-5.92 3.51-3.14 4.01-2.41 4.46-2.26 5.11.59 4.19-.02 4.4-.25 4.26 1.13 2.93 3.63 3.36 2.48 4.37 1.59 2.27 3.79 2.59 3.46 2.36 3.68 1.33 4.17 2.46 2.76 2.95-2.18 1.89-2.4-2.72-3.94-1.09-4.66-2.48-4.02-3.59-3.12-2.21-4.53-5.15-1.07-3.7-2.76-3.53-3.54-4.75-.85-4.53-1.87-4.92.55-4.85.27-4.73 1.12-4.66 1.44-4.41 2.07-2.33 4.5-3.7 2.86-2 4.4 1.96 4.62.29 4.52 1.3 4.65 2.73 4.09-.22 5.3 2.45 4.2 2.79 4.05 2.27 3.61 1.3 4.07 1.31 4.26 4.18 2.05 3.07 3.72 4.29 2.21 4.72.85 4.66 1.51 4.87-.19 4.44-.92 4.23-1.57 3.51-2.83 4.43-1.69 2.14-4.17 1.84-4.01 3.03-3.24.45-4.26 1.14-4.13-.94-4.22-.59-4.13.89-4.54-3.68-2.02-3.26.31zM805.98 251.69l-3.81-2.74-.51-4.78-.77-4.17-1.79-4.07.87-4.36.41-5.11 2.31-4.96 4.73-1.12 4.54-1.37 4.19 2.16 3.58 2.81 2.75 3.7 3.52 3.55.07 4.64.17 4.36.36 4.28-1.98 4-2.67 3.56-4.3.98-4.03.87-3.98-1.08-4.43.23-4.04.56 1.51 4.08 3.86 3 4.76 1.18 4.85-.57 4.47-1.79 4.13-2.19 4.31-2.16 1.73-3.67.99-3.71 1.96-3.61-1.52-4.23.94-4.14-1.24-3.97-2.38-3.88-.65-4.87-3.58-3.08-3.56-2.81-3.67-2.64-4.28-1.47-4.62-1.53-4.74.95-3.75 3.07-4.16 2.09-2.45 3.95-2.34 4.18.61 4.83.78 4.63.33 4.7 1.37 4.51-.69 4.48 2.15 3.66 3.23 2.75 3.51 1.78 4.18-.14z" class="cls-1"/><path d="m952.26 441.54-1.81-4.38-2.99-3.62-2.18-4.25-4.74-2.1-1.75-4.71-3.2-3.43-3.7-2.89-4.17-2.33-3.65-2.86-3.51-3.06-3.35-3.31-4.5-1.68-3.74-2.76-3.77-2.72-3.21-3.7-4.01-2.41-5.04-.57-3.95-1.94-3.41-2.94-3.28-3.2-4.05-1.79-4.07-1.73-4.36-1.18-3.94-1.95-4.04-1.78-3.58-2.64-4.07-2.04-4.32-1.66-3.24-3.43-4.01-2.33-3.07-3.88-2.95-3.91-2.11-4.16-2.18-4.23-1.08-4.79.5-1.09.08-1.68.67-3.69 3.92-5.77 2.02-3.88 2.41-3.65 2.7-3.42 3.72-2.58 2.27-3.75 2.97-3.19 2.95-3.21 1.11-4.62 3.76-2.75 1.25-4.5 4.44-2.47.12-5.04 2.44-3.69 2.73-3.67.64-4.48 2.61-3.91 1.15-4.4-.28-4.48-1-4.39-.05-4.3-.65-4.26 1.54-4.62-3.08-3.82-.33-4.37-1.15-4.19-.9-4.31-1.33-4.18-2.76-3.54-1.2-4.28-2.27-4.02-3.62-3.09-1.7-4.46-3.01-3.49-4.53-1.97-2-4.55-4.43-1.86-3.16-3.38-3.9-2.41-4.12-2.02-3.38-3.27-4.06-2.14-4.52-1.19-4.12-1.86-3.57-3.23-4.93.1-4.18-1.72-4.13-1.93-3.94-2.67-4.96.84-4.22-1.77-4.26-1.76-4.41-1.17-4.73.62-4.33-1.63-4.59.09-4.34-2.17-4.56 1.71-4.34-.76-4.38-.2-4.38-.12-4.41-.73-4.42-.07-4.26 1.92-4.86.28-4.77.91-4.75.88-5.15-.62-4.83 1.18-4.08 2.95-3.73 3.07-4.85 1.95-2.05 4.68-3.6 3.62-.86 4.98-1.09 4.74-.29 4.85.42 4.29-.21 4.39.71 4.3.29 4.42 2.03 3.96 1 4.17 1.02 4.17.83 4.21 2.5 3.82-.52 4.52.64 4.25 2.48 3.99.54 4.44 1.03 4.34.23 4.53 1.56 4.2 1.4 4.24 1.13 4.31.66 4.42 1.93 4.12-.38 4.66 1.55 4.21.15 4.51 2.82 3.97.21 4.5 1.61 4.24-.64 4.62-.4 4.64 1.97 4.3 1.39 4.4.78 4.48-.76 4.67-.41 4.61 2.65 4.27.61 4.5-.15 4.58.28 4.54.58 4.49-.11 4.57-.51 4.64.72 4.52 1 4.49.29 4.57 1.94 4.4.5 4.54-.54 4.65-.09 4.61-.29 4.64.73 4.52.51 4.55 1.58 4.42-.58 4.69 2.64 4.25.62 4.52-.08 4.64.65 4.53 1.03 4.46.53 4.55.79 4.5 1.33 4.4.16 4.65 1.24 4.41 1 4.47 2.07 4.18.68 4.56.36 4.58 2.15 4.05 2.94 3.73.91 4.42 2.26 3.91.18 4.8 1.61 4.23 1.68 4.23 2.73 3.67 3.75 2.95 2.38 3.77 1.6 4.43 3.67 2.78 3.26 3.07 2.42 4.03 4.35 1.77 3.36 3.02 4.38 1.36 3.62 2.76 4.04 2.04 4.54.58 4.2 2.23 4.81-.52 4.39 1.74 4.5 1.29 4.82-1.74 4.58.34 4.59 1.96 4.72-.05 4.72-.81 4.7.29 4.7.03 4.73.48 4.74.23 4.47-1.94 4.58-.3 4.77 1.2 4.31-2.64 4.56-.52 4.8.79 4.56-.71 4.55-.83 4.17-2.47 4.49-.99 4.19-2.04 4.99.66 4.48-1.16 4.15-2.13 4.5-.96 3.36-3.73 4.94-.02 3.86-2.46 4.44-1.35 3.42-3.19 3.78-2.51 3.15-3.33 3.42-2.9 3.12-3.19 4.46-1.94 3.22-3.27 2.34-3.78 2.6-3.63.36-4.68 2.83-3.63.51-4.43-.38-4.46 1.63-4.22-1.51-4.33 1.23-4.46-1.33-4.23.22-4.58-2.07-4.11-2.24-3.95-1.41-4.27-1.61-4.22-2.74-3.63-2.16-3.93-1.71-4.25-3.85-.35-2.37 1.2-.72 2.84 1.49 4.31 2.64 3.59 2.79 3.58 1.32 4.31 2.07 3.98 1.85 4.12-.78 4.78 1.92 4.14-.72 4.5 1.25 4.4.54 4.59-2.73 4.01-1.68 4.17-.57 4.72-3.59 3.18-1.52 4.5-3 3.49-2.63 3.94-4.33 2.06-3.87 2.47-3.01 3.78-4.53 1.41-4.07 1.93-3.48 3.12-4.09 1.96-4.72.4-4.2 1.6-4.22 1.54-4.37 1.03-4.27 1.37-4.04 2.3-4.65-.07-4.16 2.01-4.5.49-4.21 2.11-4.54.29-4.56-.03-4.4 1.2-4.47.79-4.53.05-4.53.03-4.55-1.15-4.49-.07-4.49.14-4.55 1.89-4.52-.38-4.5-.54-4.37-1.79-4.52.05-4.59-1.36-4.86.61-4.46-1.83-4.94.23-4.1-2.66-5.11-.94-3.36-4.23-4.34-2.41-4.56-2.35-2.52-3.78-4.41-1.99-2.85-3.5-1.29-4.57-2.32-3.77-2.16-3.85-1.78-4.05-3.84-3.08-1.78-4.11-.16-4.74-1.18-4.32-3.52-3.5-.65-4.51-.5-4.53-.62-4.47-2.56-3.92.22-4.67-1.91-4.13-.24-4.53-2.01-4.14-.31-4.5-1.15-4.33.33-4.59-1.61-4.26-1.25-4.33-.38-4.47-.3-4.47-1.09-4.37-.92-4.4.81-4.6-.07-4.5-1.11-4.38-1.76-4.31.37-4.53-1.13-4.37.6-4.73-.26-4.64-2.52-4.41.79-4.75-.98-4.57v-4.66l-1.2-4.55-.56-4.61-.15-4.66.88-4.77-1.83-4.47.65-4.76-1.42-4.57.02-4.75-1.67-4.52-.09-4.75-1.1-4.59-.42-4.7-1.23-4.56.2-4.85-2.4-4.3-1.51-4.46.7-4.84-1.27-4.34-2.83-3.96-.8-4.45-.26-4.6-1.92-4.18-.37-4.57-.72-4.48-.44-4.55-2.6-4.03-.82-4.47.2-4.44-1.59-4.02-.16-4.35-1.94-3.93-.91-4.19-.69-4.24-.7-4.75-2.78-4.28-.29-4.84 1.46-4.66-.61-4.67 2.03-4.07 3.37-3.08 1.24-4.8 3.75-2.72 4.55-1.05 4.27-.93 4.21-2.18 4.34-2.05 4.66-.5 4.71.16 4.68.28 4.56-1.66 4.42 1.03 4.4-1.52 4.36 1.24 4.39.2 4.38.17 4.32.88 4.46-.23 4.33.75 4.32.85 4.25 1.17 4.22 1.22 3.97 2.13 4.29.83 4.36.7 4.06 1.97 4.7.21 4.24 1.51 3.41 3.43 4.12 1.71 4.17 1.66 4.45 1.25 4.12 1.94 3.31 3.17 3.49 2.85 3.96 2.28 3.5 2.9 1.78 4.57 3.72 2.61 3.5 2.97.63 4.92 3.59 3.03 1.08 4.43 3.41 3.37 1.62 4.21-.36 4.79 1.08 4.28.49 4.38 1.6 4.23.44 4.42.21 4.34-.89 4.28-.74 4.24-1.49 4.04-.34 4.4-2.35 3.71-.98 4.29-1.94 3.89-3.45 2.94-2.4 3.69-.79 4.92-4.55 2.11-2.17 3.94-3.06 3.24-2.21 3.93-2.15 3.97-3.72 2.75-3.13 3-2.01 3.81-1.43 4.1-.41 4.37-2.83 3.51.88 4.35-.89 4.15 1.7 3.8-.2 4.45 1.39 4.08 3.24 2.94 4.13 3.73 3.94 3.82 2.59 4.09 3.88 2.51 4.69.96 3.62 2.84 4.73.75 3.12 3.79 4.08 1.99 4.62.94 3.88 2.36 4.12 1.92 3.54 3.01 4.05 2.03 3.55 2.95 4.9.54 3.9 2.35 2.97 3.84 3.96 2.2 4.42 1.55 4.1 2.07 2.58 4.16 4.02 2.2 2.87 3.69 4.66 1.67 2.45 4.08 3.27 3.2 2.78 3.64 2.67 3.7 3.09 3.4 3.19 3.42 2.48 2.44 3.93-.04z" class="cls-1"/><path d="m1247 512.97-2.42-3.89-2.7-3.78.43-5.1-1.7-4.19-3.07-3.64-1.78-4.17-1.5-4.28-1.41-4.32-1.93-4.12-2.1-4.06-1.85-4.16-1.08-4.44-.09-4.81-2.58-3.88-1.88-4.14-1.19-4.4-1.1-4.43-2.17-4.04-1.25-4.38-2.13-4.05-1.89-4.14-.69-4.59-2.24-4.01-1.32-4.35-.41-4.71-1.97-4.11-2.87-3.75-1.69-4.21-1.52-4.28-1.98-4.09-1.35-4.35-1.8-4.16-2.75-3.74-.48-4.76-3.04-3.58-1.5-4.3-1.83-4.15-1.54-4.31-2.36-3.88-3.16-3.43-2.53-3.75-1.31-4.47-2.23-3.94-1.76-4.25-3.59-3.07-2.2-3.98-3.24-3.24-2.31-3.91-2.34-3.91-3.98-2.58-1.95-4.26-2.99-3.4-3.04-3.36-3.14-3.27-3.24-3.17-2.81-3.66-3.68-2.7-3.05-3.36-4.29-1.89-2.67-3.81-4.48-1.68-3.58-2.73-2.15-4.4-4.63-1.52-2.98-3.44-4.11-2.13-3.23-3.16-2.93-3.52-2.74-3.74-4.4-1.76-3.74-2.53-2.26-4.36-3.9-2.35-4.59-1.46-2.55-4.05-4.46-1.57-3.27-3.13-3.54-2.78-3.48-2.87-4.27-1.72-2.84-3.87-3.84-2.37-4.35-1.52-3.81-2.4-3.71-2.6-4.19-1.7-4.15-1.75-3.75-2.62-4.44-1.07-3.63-3.12-4.49-.87-4.78.24-4.29-1.2-4.04-2.47-4.56-.14-4.5-.11-4.38-1.35-4.53.91-4.45.24-4.55-1.46-4.49.5-4.38 1.17-4.43.77-4.3 1.32-4.45.81-4.49.78-4.29 1.49-4.2 1.77-3.8 2.58-3.7 2.61-3.72 2.5-3.9 2.28-3.42 2.93-3.01 3.34-2.99 3.34-3.31 3.17-1.65 4.28-3.44 3.33-1.43 4.37v4.76l-2.3 4.06-1.6 4.37-.33 4.55 1.71 4.7-2.27 4.37-.17 4.56 2.05 4.47-.67 4.55-.11 4.57 1.68 4.32 1.58 4.27-.67 4.78 1.48 4.3 2.09 4.08.77 4.5.81 4.53 3.29 3.56 1.53 4.24 1.62 4.21 1.06 4.5 3.04 3.53 2.05 4.02.78 4.72 2.77 3.64 3.64 3.11.39 5.03 2.7 3.66 4.05 2.8 1.48 4.4 1.97 4.11 2.54 3.74 2.49 3.77 2.05 4.07 3.02 3.42 3.89 2.83 1.85 4.21 2.59 3.71 1.59 4.39 2.44 3.81 2.67 3.66 2.89 3.51 2.63 3.67 2.53 3.75 2.59 3.68 2.02 4.1 2.68 3.87-.75 5.13 2.8 3.86 1.28 4.39 1.81 4.21-.09 4.8 3.14 3.81 1.57 4.3.16 4.73.99 4.48 3.04 3.82.02 4.81 2.32 4.03 1.94 4.14.38 4.75 1.58 4.3 2.34 3.97 2.01 4.1 2.94 3.61.91 4.71 3.33 3.32 2.57 3.74 1.39 4.62 3.52 3.07 2.63 3.76 4.04 2.44 2.31 4.19 3.86 2.29 3.69 2.4 4 1.85 3.68 2.4 3.6 2.83 4.14 1.73 4.27 1.46 4.45.72 4.5.13 4.46-.96 4.57 1.39 4.11-2.41 4.69.02 4.21-1.87 2.47-4.16 2.9-3.16 2.02-3.77 1.98-3.95 2.13-4.07.51-4.47-.1-4.5 1.37-4.41-2.06-4.46-.42-4.4 1.85-4.57-2.09-4.29.13-4.48-1.25-4.32.41-4.55-1.55-4.26.9-4.65-2.27-4.15-.49-4.43-.69-4.4-1.05-4.34-.25-4.47.76-4.6-.61-4.39-2.04-4.26.85-4.51-.69-4.4-.46-4.56 2.3-3.97 3.88-2.23 3.58-2.33 4.03-1.45 4.07 1.27 3.67 1.97 4.2 1.69 4.13 2.32 1.78 4.4 2.07 4.01 3.73 2.92 1.2 4.52 3.1 3.39.72 4.7 2.28 3.85 2.11 3.95 3.39 3.33.46 4.77 3.21 3.44.88 4.56 1.93 4.06 2.55 3.75 2.59 3.72 2.52 3.72 1.04 4.53 2.56 3.69 2.85 3.45 2.08 3.39 1.98 3.44 2.35 3.21 1.02 4.72 4.07 2.74 1.33 4.66 3.43 3.11 2.67 3.71 3.29 3.17 2.93 3.51 3.49 2.95 3.49 2.92 3.9 2.44 1.99 4.71 4.23 2.02 3.05 3.56 4.66 1.3 4.1 2.02 2.98 3.86 4.82.71 3.65 2.83 3.95 2.35 4.81.16 3.79 3.05 4.8-.74 4.24 2.91 4.46-2.49 4.25-.61 3.68-2.12 4.13-2.44.22-4.82 2.09-4.22-1.61-4.53-.29-4.44-.56-4.46.68-4.83-3.42-3.75-1.03-4.42-1.49-4.27.18-5-2.55-3.91Zm-182.47-177.52-3.72 1.95-3.09 3.01-3.94 1.62-4.44-1.29-3.6 2.56-3.32 1.42-3.59 1.34-3.21 2.35-4.75-.95-4.05 1.86-4.33.8-4.18-1.5-4.77-1.04-3.87-2.95-3.81-2.87-3.87-3.13-1.12-4.94-2.2-4.27-1.36-2.1.69-2.4-2.14-3.89.15-4.46-1.36-4.03-2.5-4.55 2.01-4.87.15-4.71.46-5.09 3.27-4.04 4.39-1.62 4.33-1.23 4.41 1.01 4.31.36 4.43.53 3.72 3.1 4.49 1.52 3.75 2.8 3.74 2.8 3.34 3.3 3.21 3.3 4.2 2.05 3.75 2.63 3.08 3.51 3.75 1.97 3.74 2.08 2.63 3.44.8 5.13 1.93 4.59-1.53 4.89Z" class="cls-1"/><path d="m1060 332-2.66 2.35-3.37 2.08-4.08.25-3.66 2.69-4.43-.3-3.6 2.19-4.01 1.16-3.24 3.28-5.37-.13-5.28.92-5.09-1.73-4-1.5-1.92-4.14-4.33-1.72-1.78-3.9-.78-4.93-1.6-4.57-1.32-4.67-2.09-4.27-.04-4.73.52-4.63-1.77-4.77 3.06-3.69 2.72-2.96 3.19-2.51 4.14-.54 4.46-.89 4.49.8 3.89 2.35 3.73 2.43 3.6 2.58 4.27 2.34 2.92 4.07 5.09 1.38 2.85 4.12 4.14 2.55 2.88 4.17 5.36 2.05 3.03 4.62 2.79 4.63-1.46 5.39.32 2.61 2.78 3.37 3.92-2.5 2.01-4.5-.13-4.93-2.14-4.34-1.46-4.61-4.41-2.38-2.34-4.2-4.72-1.31-2.68-4-3.82-1.62-2.77-2.92-2.61-3.12-2.85-2.8-4.04-2.33-3.89-2.5-3.79-2.64-3.94-2.5-4.66-.81-4.41-1.05-4.49-1.5-4.58 1.4-4.47.56-4.61 1.02-4.02 2.72-2.08 4.17-2.37 4.06-.8 4.61 1.58 4.54-.17 4.53 1.98 4.18.91 4.38 1.3 4.28-.51 4.84 2.25 3.78 1.89 3.83 2.42 3.49 2.47 3.42 2.51 3.61 3.74 2.09 3.67 2.16 4.36.18 3.93 1.37 4.16.28 5.36-1.44 5.3-.91 3.93-.54 3.98-.93 3.1-2.27 4.41-1.31 4.59-.77 4.66-.89 4.33-2.16 1.9-4.48 1.84-3.4-3.36-3.03z" class="cls-1"/><path d="m1250.11 513.1-.83-4.56-3.69-3.34-1.5-4.28-.01-4.88-1.43-4.28-2.94-3.7-.79-4.55-1.62-4.21-3.4-3.55-.64-4.59-1.65-4.21-1.55-4.24-1.04-4.44-1.23-4.37-2.31-3.97-1.86-4.14-.88-4.49-.87-4.5-3.73-3.45.27-4.91-3.11-3.67-.35-4.69-1.32-4.33-1.34-4.32-1.79-4.15-1.73-4.17-1.27-4.35-1.8-4.14-2.38-3.91-.71-4.59-1.88-4.11-3.59-3.35-1.84-4.11-.68-4.63-1.71-4.19-2.95-3.58-2.29-3.89-.28-4.91-3.25-3.39-1.76-4.16-1.34-4.42-4.06-2.88-2.17-3.85-1.33-4.38-2.66-3.56-2.67-3.55-2.22-3.86-2.07-3.97-3.83-2.68-2.15-3.93-3.1-3.18-1.57-4.49-3.32-3.04-3.51-2.82-2.91-3.4-3.24-3.06-3.66-2.59-2.86-3.48-3.42-2.87-4.29-1.81-3.41-2.84-2.68-3.67-3.72-2.44-3-3.28-3.88-2.27-3.84-2.31-1.72-4.78-4.08-2.02-2.86-3.45-3.52-2.67-3.19-3.04-4.07-2-3.7-2.41-2.8-3.53-4.4-1.54-3.15-3.08-2.7-3.67-3.82-2.72-3.64-2.96-4-2.47-4.44-1.81-3.7-2.85-3.47-3.26-3.59-3.11-4.48-1.64-4.27-1.95-3.71-2.99-4.73-1.01-4.16-2.12-4.21-2.02-4.11-2.34-4.79-.54-4.2-2.31-4.53-1.31-4.92.51-4.22-2.99-4.94 1.4-4.54-1.72-4.73.79-4.66.31-4.66-.31-4.68.12-4.73-.04-4.42 1.9-4.68-.75-4.25 1.31-3.91 2.35-4.06 1.69-4.84-.22-3.27 3.52-4.8.33-2.65 4.24-4.05 1.79-3.55 2.57-2.81 3.43-4.63 1.59-1.84 4.28-3.65 2.81-2.59 3.64-2.27 3.86-1.12 4.38-1.23 4.26-.78 4.34-1.12 4.24-1.56 4.24-.03 4.75-1.03 4.67 1.08 4.77.38 4.7-1.46 4.78 1.87 4.59 1.27 4.56.95 4.57-.72 4.73 2.1 4.12-.09 4.69 2.05 4.09 1.73 4.15 2.45 3.87.74 4.53 1.77 4.13 1.96 4.04 2.19 3.93 1.22 4.42 2.9 3.55 1.28 4.42 2.77 3.6 3.12 3.38 1.38 4.41 3.33 3.23 1.62 4.29 2.17 3.75 1.85 3.95 3.85 2.64 2.17 3.75.7 4.75 4.36 2.27 1.45 4.24 3.31 2.98.88 4.66 3.28 3.02 2.23 3.6 3.37 2.83 1.18 4.33 3.25 2.92 2.36 3.53 1.43 4.19 2.02 3.73.91 4.22 2.73 3.52.61 4.65 2.46 4.01 1.02 4.5.8 4.56 1.24 4.42 3.29 3.8.21 4.72 2.16 4.14 1.66 4.27 1.09 4.46.43 4.69 1.36 4.39 2.23 4.07 1.29 4.43 2.15 4.07 1.45 4.3 1.6 4.26 2.63 3.74 1.49 4.36 2.99 3.49 2.31 3.91 2.33 3.93 2.7 3.68 3.3 3.18 3.76 2.66 3.5 2.84 3.79 2.44 2.59 4.12 4.3 1.69 4.4 1.32 3.66 2.78 4.04 1.72 4.08 1.72 4.52-.04 4.35.24 4.22 1.51 4.41.7 4.25-1.93 4.28-.47 4.55-.01 4.22-1.51 3.73-2.52 3.23-3.11 3.05-3.34.79-4.54 1.58-4.12 1.93-4.11-.97-4.66 2.2-4.21.38-4.46-1.44-4.45 1.09-4.48.12-4.49-1.66-4.32.55-4.55-.25-4.46-2.79-4.08.22-4.55-1.07-4.33.45-4.58-1.06-4.32-.1-4.46-1.68-4.21-.58-4.39-.69-4.37-1.86-4.23-.13-4.47-.24-4.45.38-4.45-.06-5.07 3.88-3.32 3.28-3.62 3.8-.74 2.89-.23 3.66 1.89 3 2.61 2.93 4.9 4.08 3.92 2.24 4.1 2.86 3.71 2.37 4 2.3 4.05 1.14 4.62 2.51 3.93 2.57 4.2.47 5.2 3.28 3.84 1.6 4.67 2.23 4.37 2.78 4.09 2.79 3.54 2.04 3.96 1.89 4.06 2.91 3.44 1.83 4.13 2.29 3.86 1.28 4.46 3.03 3.37 2.6 3.6 3.4 3 2.27 3.83 2.81 3.41 1.74 4.41 3.47 2.88 2.92 3.39 4.21 2.03 2.5 3.87 3.19 3.14 3.35 2.97 3.84 2.34 4.65 1.14 2.73 4.1 3.94 2.35 4.2 1.9 4.09 2.05 4.23 1.72 3.38 3.59 4.52 1.15 4.52.95 4.05 2.63 4.71.07 4.6.26 4.61-.83 4.95-.25 3.06-3.93 3.09-3.44 2.02-4.26.15-4.71-.2-4.6 1.13-4.75-1.44-4.23-1.1-4.23-.42-4.41-2.5-3.81-.38-4.48-1.25-4.21-1.43-4.16-1.86-3.98-3.59-2.73-3.41-.25-1.3 3.65 2.35 3.92.46 4.67 3.06 3.71.94 4.48 1.01 4.43.51 4.5 1 4.4.06 4.49.25 4.55-2.1 3.99-1.97 4.05-4.4 1.05-4.12.8-4.48 1.41-4.63-.27-4.42-1.27-3.68-3.19-4.43-1.11-4.14-1.84-4.1-2.26-4.47-1.67-3.34-3.48-4.19-2.18-3.9-2.62-3.16-3.57-3.78-2.78-4.07-2.5-2.46-4.21-4.52-2.17-2.53-4.06-3.02-3.6-1.9-4.55-3.47-3.36-2.58-4-2.26-4.21-2.77-3.89-1.54-4.64-4.53-2.77-1.59-4.06-2.53-3.47-2.05-3.76v-4.75l-3.65-2.96-1.06-4.2-1.99-4.42-1.55-4.62-1.78-4.51-2.2-4.31-3.17-3.81-1.84-4.48-2.89-3.42-1.14-4.39-2.87-3.4-2.61-3.52-2.18-3.81-1.96-4.06-3.19-2.82-3.85-1.97-2.33-3.91-4.27-.97-4.04-.72-4.26-.98-4.43.62-3.04 3.46-4.76 1.22-2.23 4.06-.2 4.36.02 4.07-1.44 4.17-.06 4.18 1.29 4.22 1.95 4.09-1.54 4.53 1.5 4.13.6 4.6 1.82 4.4-.16 4.73 1.47 4.46 1.13 4.53.74 4.59.04 4.68.07 4.67.78 4.79-.27 4.88 1.63 4.78-.78 4.88-.55 4.82.98 4.97-1.78 4.67-2.39 3.92-.43 4.52-2.31 3.79-2.65 3.68-3.49 3.04-4.48 1.17-4.27.82-4.28.74-4.29-1.13-4.51 1.59-4.07-2-3.83-2.21-4.48-.16-4.44-.85-3.78-2.31-2.5-4.1-3.78-2.11-3.19-2.9-4.3-1.87-2.3-3.81-2.98-3.19-2.02-4.21-1.87-4.23-4.08-2.82-1.9-4.21-2.31-3.96-1.46-4.39-2.12-4.05-2.38-3.97-1.67-4.28-.08-4.83-2.33-4.03-2.33-4.04.24-4.88-3.17-3.81.28-4.84-2.37-4.18-.56-4.72-.67-4.7-3.09-3.94-1.35-4.47-1.67-4.37-1.91-4.28-1.39-3.39.66-4.26-2.4-4.18-3.59-3.27-1.15-4.2-2.93-3.02-1.83-3.77-3.75-2.45-1.3-4.12-3.84-2.92-2.1-4.13-2.71-3.7-2.05-4.16-2.36-3.94-2.45-3.88-3.14-3.41-2.45-3.88-3.21-3.39-2.41-3.91-2.61-3.78-1.74-4.32-1.83-4.25-2.92-3.61-1.45-4.44-2.12-4.05-1.69-4.27-3.28-3.49-1.57-4.57-2.26-4.25-.77-4.86-2.71-4.1-2.31-4.3-.75-4.81-2.14-4.42.25-5-.51-4.54-1.23-4.43-1.16-4.5 1.88-4.68-.3-4.51-1.25-4.58 1.71-4.48-1.78-4.7 1.51-4.38 1.03-4.37.22-4.65 3.35-3.54 1.24-4.33 2.38-3.78 1.11-4.72 4.29-2.35 3.21-3.07 3.5-2.72 2.52-4.03 4.37-1.56 3.76-2.39 3.71-2.97 4.91-.24 4.22-1.79 4.16-2.16 4.71-.17 4.52-.78 4.24-2.8 4.7.18 4.59-1.3 4.68 2.12 4.66-1.3 4.65.15 4.47 1.64 4.76-.15 4.49 1.31 4.48 1.29 4.38 1.61 4.12 2.25 4.32 1.66 4.51 1.27 4.71.94 4.35 1.78 3.45 3.45 4.23 1.98 3.58 3.09 4.63 1.39 2.85 3.89 4.56 1.31 3.56 2.79 4.17 1.96 2.6 4.06 4.78 1.19 3.23 3.22 2.34 4.32 5.03.95 3.18 3.24 3.69 2.65 3.54 2.81 1.98 4.64 4.23 2.01 2.84 3.64 3.06 3.02 3.52 2.48 4 1.92 2.45 3.72 3.45 2.59 4.05 1.87 2.78 3.37 2.93 3.22 3.17 3.02 3.97 2.09 3.39 2.78 3.58 2.59 1.74 4.5 4.58 1.61 2.32 3.84 2.57 3.57 3.51 2.76 1.71 4.45 2.97 3.44 4.21 2.55 1.76 4.35 1.71 4.32 4.13 2.75.54 5.03 2.78 3.62 3.58 3.19 2.55 3.81 1.21 4.53 2.57 3.79 2.24 3.98 1.96 4.12 1.98 4.1.32 4.87 1.94 4.11 3.58 3.39 1.64 4.27.36 4.78 2.69 3.81 1.92 4.14 1.97 4.12 1.3 4.38 1.39 4.34.94 4.52 1.71 4.21 1.91 4.15 2.81 3.81 1.23 4.4.99 4.49 1.93 4.15.89 4.53 1.39 4.34 1.92 4.15.39 4.72 2.27 4.03 2.97 3.75.21 4.79 2.13 4.08 2.61 3.89.67 4.65 1.08 4.5 1.97 4.15 2.39 3.98 1.89 4.16 1.45 4.37.78 4.65 3.58 3.48 2.5 2.83 3.56 1.49zM208.43 248.4l4.38 1.45 3.5 3.2 4.5 1.26 2.62 3.89 4.49 1.95 1.56 4.52 1.96 4.02 2.98 3.55 2.59 3.9 1.15 4.44-.44 4.8 1.96 4.21.44 4.52 1.42 4.4.6 4.53-1.29 4.64 2.09 4.45-.27 4.56.43 4.56-1.3 4.53.91 4.57-1 4.52.17 4.55-.39 4.53-.89 4.5-.72 4.49.54 4.59-.74 4.48.62 4.62-1.17 4.44-.5 4.51-.04 4.56-2.13 4.32.68 4.65-1.51 4.39.13 4.59-1.26 4.41-.14 4.55-.99 4.45-.21 4.55.52 4.64-1.68 4.37-.38 4.53.26 4.62-1.83 4.36-.01 4.58.52 4.64-.75 4.5-2 4.37-.34 4.55.05 4.59-.01 4.57-1.65 4.44-.17 4.56 1.01 4.64-.37 4.54.65 4.59-2.17 4.46.31 4.58 1.47 4.58-.35 4.54.3 4.53-1.95 4.57.54 4.54.94 4.5-.64 4.59-.13 4.59 2.72 4.29-1.13 4.71 1.47 4.37 1.67 4.3-1.41 4.92 1.78 4.27 1.77 4.23.8 4.51.81 4.58 3.93 3.27.38 4.84 3.7 3.11 2.87 3.57 3.61 2.9 4.52 1.07 4.56 1.67 4.85-.54 4.14-1.81 4.07-1.87 4.63-1.09 3.31-3.23 3.18-3.25 2.32-3.96 3.38-3 2.72-3.58 2.53-3.73.85-4.62 2.73-3.64 1.07-4.4 1.57-4.17 1.47-4.22 1.31-4.26 1.07-4.35 2.04-4.1 1.05-4.37 2.29-4.13-1.54-4.86 2.08-4.21 1.2-4.37-.31-4.59.94-4.41.84-4.44.13-4.51-.59-4.56 1.91-4.37.58-4.49.02-4.51.15-4.51-1.79-4.58.74-4.47-.56-4.52.25-4.49.93-4.48-.1-4.51.2-4.5.51-4.5-.91-4.51.8-4.49-.45-4.51.69-4.5-1.24-4.5.84-4.5.23-4.48.13-4.49.21-4.33-1.31-4.28.73-4.38-.35-4.34.5-4.39-1.18-4.28.96-4.4-1.92-4.4.93-4.61-.31-4.52-1.54-4.39-.22-4.5-1.02-4.44-.46-4.49.08-4.55 1.06-4.63-2.81-4.32.45-4.57-.27-4.52.29-4.54-1.12-4.53.17-4.55.71-4.52-.1-4.57 1.12-4.45.07-4.6 2.24-4.18 1.68-4.19 1.22-4.31.86-4.53 1.38-4.43 3.52-3.19 2.96-3.38 1.9-4.35 3.1-3.4 3.7-2.73 4.01-2.22 3.69-2.73 4-2.25 4.95.09 3.68-3.28 4.62-.3 4.06-2.27 4.68-.16 4.3-1.44 4.52-.95 4.37-1.43 3.7-2.85 3.82-2.5 3.66-2.68 4.08-2.03 3.91-2.35 3.39-3.03 2.47-3.99 4.43-1.96 2.26-4.06 3.98-2.68 1.44-4.53 1.44-4.34 1.86-4.03 2.2-3.95 1.35-4.29.2-4.51.31-4.44.33-4.49.26-4.66-2.86-3.87-1.1-4.38-2.37-3.82-2.92-3.4-2.24-4.17-4.57-1.53-3.66-2.54-3.35-3.38-4.87-.03-3.79-2.96-4.72.29-4.16-2.48-4.56-.42-4.59.55-4.54 1-4.6-1.9-5.13 1.86-5.4-.07-4.76 2.88-4.8-1.05-4.33 1.27-4.47.5-4.45.58-4.32 1.43-4.42.77-4.24 1.89-4.64-.5-4.35 1.17-4.31 1.45-4.43.7-4.43.7-4.36 1.12-4.5.39-4.41.82-4.65-.39-4.39.99-4.36 1.13-4.24 1.71-4.4.94-4.74-.63-4.3 1.42-4.16 2.01-4.29 1.38-4.31 1.31-4.56.27-4.58.27-4.25 1.54-4.47.71-4.05 2.24-4.67.09-3.99 2.35-4.56.52-3.89 2.61-4.22 1.56-4.81-.12-4.08 2-4.1 1.88-4.13 1.82-4.32 1.34-4.41 1.15-3.73 2.73-4.38 1.26-4.1 1.9-3.42 3.2-4.4 1.32-3.71 2.62-4.17 1.79-3.89 2.3-2.75 4.01-4.41 1.5-3.48 2.86-4.1 2.05-3.23 3.19-2.46 4-4.33 1.92-3.01 3.35-2.62 3.79-3.72 2.77-2.38 3.9-2.86 3.59-1.44 4.35-1.26 4.33-.13 4.45.64 4.3 1.26 4.29 3.37 3.02 4.08 1.89 4.36 1.4 4.54 1.24 4.64-1.65 4.6 1.11 4.57-.69 4.59.06 4.43-1.59 4.61.01 4.54-.64 4.34-1.84 4.72.34 4.64-.19 4.18-2.37 4.76.35 4.27-1.94 4.58-.59 4.29-1.76 4.86.46 4.1-2.56 4.46-1.48 4.59 1.66 4.5.17z" class="cls-1"/><path d="m206.83 251.84 4.46 1.07 3.65 2.91 3.92 2.18 3.46 2.87 2.91 3.42 1.46 4.36 2.68 3.52 1.57 4.12 1.24 4.22 3.13 3.71-.35 4.67 2.3 4.1-1.78 4.75 2.86 4.14-.16 4.5-.82 4.5 1.06 4.41-1.4 4.46-.29 4.42.75 4.44 1.07 4.48-.21 4.43.07 4.56-2.45 4.4 1.95 4.67-1.1 4.47-.51 4.51-1.01 4.46-.77 4.48.59 4.62-1.33 4.42-.52 4.51.77 4.65-1.88 4.34-.55 4.5 1.31 4.73-2.53 4.25.85 4.68-1.33 4.41-.32 4.53-.04 4.57-1.66 4.36-.51 4.51.39 4.62-.52 4.51-2.1 4.32 1.37 4.73-.7 4.49-.99 4.45-1.87 4.37 1.69 4.73-1.09 4.45-1.16 4.45-.64 4.5 1.11 4.63-1.25 4.55.42 4.66-1.91 4.54 1.91 4.71-.63 4.6-.11 4.62-.08 4.62-.73 4.64-.13 4.64 1.85 4.54.14 4.62.74 4.55.62 4.57-1.11 4.82.41 4.64 1.83 4.05 1.49 4.07-.7 4.64 2.49 3.77.14 4.53 2.53 3.67 1.82 3.91 2.12 3.75 2.39 3.56 1.88 3.92 2.96 3.19 3.7 3.28 4.89.73 4.68.69 4.74-.21 4.67-.88 3.82-3.06 4.86-.65 4.21-2.18 2.86-4 3.8-2.72 3.24-3.36 3.65-3.1 2.33-4.12 2.19-4.16 2.2-4.13 2.42-4.04 1.01-4.66 3.02-3.87.96-4.64 2.14-4.24-.64-5.02 1.76-4.35.23-4.72 2.28-4.28 1.93-4.41-.57-4.83-.1-4.73.4-4.64 1.83-4.48 1.39-4.56-1.74-4.84.23-4.65.94-4.61.45-4.65.11-4.67.77-4.62 1.14-4.38-.12-4.43-.43-4.43.27-4.41-1.4-4.45.03-4.41 1.07-4.4.62-4.41.83-4.41-.18-4.41.07-4.42-1-4.42 1.21-4.41-2.01-4.42.08-4.41.82-4.41.06-4.57-.38-4.55.07-4.57-.2-4.57-.73-4.52.53-4.61-.49-4.54-.16-4.29-1.27-4.2.19-4.32.55-4.36-1.26-4.18-2.01-4.1.23-4.33-1.08-4.2 1.34-4.42-.06-4.53.08-4.53-.88-4.46-1.85-4.44.07-4.55 1.43-4.52-.81-4.55.11-4.55 1.87-4.33-.57-4.66 1.56-4.3.25-4.66 2.39-3.98 2.19-3.95 1.43-4.37 3.4-3.16 1.78-4.57 4.02-2.66 3.99-2.45 2.56-4.52 4.11-2.46 4.97-.54 4.26-1.91 4.27-2.19 4.51-.9 4.44-1.18 4.59-.82 4.51-1.13 3.67-3.22 4.22-1.77 4.91-.53 3.03-4.04 3.98-2.25 4.51-1.13 3.62-2.51 3.49-2.72 2.27-4.03 3.17-2.98 2.26-3.8 4.32-2.12 2.78-3.46 1.76-4.11 2.66-3.6-.27-4.88 3.29-3.5.55-4.42 1.59-4.24-.72-4.48-.17-4.36-1.42-4.17-1.09-4.12-1.66-3.91-.16-4.7-1.97-3.98-2.89-3.37-2.68-3.55-4.35-1.71-2.64-3.75-4.08-1.75-4.76-1.07-3.99-2.91-4.99.11-4.33-2.55-4.84-.05-4.7-1.65-4.85.65-4.69.92-4.74.11-4.75.36-4.51 1.6-4.64.89-4.79.26-4.21 2.85-4.63 1.07-4.56-.12-4.56-.2-4.28 1.27-4.24 1.57-4.48.15-4.32 1.17-4.32 1.17-4.69-1.22-4.2 1.84-4.57-.44-4.2 1.93-4.22 1.67-4.69-1.13-4.44.44-4.12 2.19-4.65-.65-4.09 2.22-4.35.88-4.14 1.84-4.59-.29-4.41.63-3.98 2.44-4.57-.03-4.36.88-3.95 2.37-4.24 1.28-4.67-.15-4.26 1.28-4.22 1.38-4.34 1.04-4.17 1.54-3.79 2.59-4.58.44-3.77 2.59-4.4 1.31-3.69 2.97-4.35 1.42-4.43 1.27-3.85 2.54-3.93 2.31-4.2 1.79-4.13 1.92-4.65 1.04-4.05 2.15-3.86 2.48-2.82 4.1-3.92 2.31-3.92 2.34-4.55 1.49-3.38 3.15-4.1 2.19-2.55 3.76-3.95 2.06-2.28 3.96-3.96 2.14-2.11 3.99-4.38 1.97-2.28 3.81-1.45 4.24-2.88 3.41.15 4.97-.94 4.32-1.75 4.5.95 4.64 2.34 4.17 3.4 3.45 5.08.09 4.33 1.1 4.4 2.16 4.68.61 4.63-2.22 4.68.61 4.6.57 4.61.23 4.36-1.94 4.7.74 4.37-1.58 4.62-.03 4.27-1.93 4.58-.33 4.39-1.27 4.79.05 4.3-2 4.37-1.68 4.59-.82 4.61-.62 4.51-1.22 4.64-.76 4.61 1.4 4.4 1.05 4.27-2 .64-3.99-1.24-3.07-4.21.02-4.11-1.35-4.24-.14-3.96 2.42-4.13-.48-3.77 1.53-4.02.61-4.28 1.82-4.45 1.14-4.56.7-4.71-.4-4.15 2.22-4.67-.31-4.28 1.67-4.55.14-4.31 1.72-4.56.01-4.44.88-4.53.01-4.21.68-4.29-.98-4.25 1.38-4.33.03-3.7-2.75-3.61-1.58-4.39-2.18-1.37-4.67.75-4.66.16-4.71 2.46-4.01 2.62-3.76 3.15-3.13 1.76-4.36 3.37-2.96 4.13-2.04 3.04-3.28 4.05-2.03 3.01-3.4 3.7-2.47 4.02-2.32 4.14-2.12 2.98-3.99 4.14-2.13 4.67-1.15 3.33-3.58 4.33-1.73 4.74-.88 3.18-3.98 4.28-1.7 4.73-.67 4.43-1.27 3.83-2.73 3.87-2.73 4.41-1.37 4.58-.86 4.56-.83 3.91-2.77 4.73-.28 3.96-2.79 4.72-.2 4.41-1.25 4.4-1.34 4.55-.71 4.26-1.85 4.54-.98 4.54-.93 4.59-.68 4.59-.69 4.75.18 4.48-1.21 4.45-1.42 4.66-.22 4.33-2.16 4.55-.91 4.85 1.04 4.54-.93 4.51-1.13 4.41-1.77 4.49-1.2 4.7.07 4.54-.49 4.4-1.44 4.47-.93 4.83 1.15 4.31-1.88 4.29-1.83 4.92 1.23 3.86-2.51 4.45-.04 3.78-2.74 4.28-.9 4.52 1.13 4.23-.34 4.25.25 4.27-.92 4.28.2 4.37.34 4.2 1.36 4.19 1.17 3.92 1.9 4.37.85 3.38 2.86 4.07 1.75 3.35 2.84 1.76 4.19 2.38 3.48 3.93 2.95-.8 4.89 1.61 4.18-.08 4.45.46 4.52-.08 4.64-2.53 3.99-2.41 3.82-1.69 4.13-1.73 4.21-1.57 4.51-4.23 2.41-2.07 4.33-3.95 2.3-2.85 3.57-4.58 1.27-4.02 1.88-3.25 3.15-3.57 2.74-3.99 1.98-4.7.29-4.36 1.59-3.99 2.83-4.72.62-4.02 2.88-5.05-.38-4.4 1.72-3.82 3.02-4.3 1.82-3.87 2.59-4.14 1.75-3.3 2.94-3.79 2.46-1.48 4.58-2.69 3.39-3.88 2.69-1.96 4-.87 4.46-1.03 4.33-3.12 3.63-.44 4.51-1.9 4.16 1.13 4.69-1.74 4.26-.2 4.45-.52 4.43-.3 4.55.53 4.55.93 4.52-.44 4.55-.26 4.57.02 4.56 1.76 4.41-.66 4.61.23 4.54 1.61 4.41-.74 4.63.59 4.5 1.6 4.41-.73 4.62 1.08 4.48-.53 4.58.33 4.38.26 4.39 1.83 4.31-.74 4.45.25 4.41.85 4.39-.58 4.42.56 4.69-1.1 4.68-.02 4.69-.94 4.68 1.65 4.69-.58 4.69.04 4.69-1.42 4.57-.44 4.58.32 4.59.63 4.6.15 4.59-1.08 4.55.63 4.62.2 4.6-1.57 4.51 1.48 4.69-1.47 4.5.1 4.61.43 4.66-2.33 4.37.36 4.66-.25 4.6-.97 4.51-.72 4.46-1.95 4.24-.67 4.45.44 4.7-1.84 4.22-.73 4.48-2.15 4.07-.52 4.58-1.16 4.42-2.16 4.01-1.68 4.24-3.89 2.97-2.02 4-1.84 4.24-2.32 4.03-4.08 2.42-2.96 3.67-4.07 2.26-4.17 2.03-4.81-.21-4.28 2.29-4.29-2.02-3.51-1.96-4.32-1.62-1.27-4.36-1.33-4.08-2.86-3.8-2.88-3.92-.12-4.93-2.14-4.07-.85-4.45-.67-4.48-2.24-4.18-.36-4.54-.17-4.55-.76-4.47 1.62-4.66-2.77-4.35.69-4.56.42-4.53-.47-4.51-.51-4.52 1.68-4.49.11-4.47-.86-4.51-.13-4.5 2.06-4.36.33-4.46-1.48-4.59 1.08-4.42.18-4.48.02-4.49.62-4.45 1.01-4.4-1.07-4.62 1.69-4.32-.68-4.59 1.69-4.31.71-4.43-.21-4.54 2.23-4.23-1.78-4.74.93-4.4 2.23-4.24-.13-4.53 1.54-4.32-.2-4.54.76-4.43.54-4.44.77-4.43.58-4.44-1.7-4.69 1.9-4.3 1.11-4.4-1.6-4.64 1.16-4.39.8-4.48-.68-4.59 2.54-4.37-.35-4.57-.78-4.58-.43-4.55.84-4.5 1.24-4.52-1.92-4.53.77-4.54-.26-4.52-.86-4.48.52-4.58-.56-4.5-.77-4.55-.82-4.54-1.68-4.34.25-4.82-2.56-4.03-2.24-4.02-.63-4.76-2.91-3.63-2.21-4.08-3.79-2.71-3.84-3.01-3.28-4.18-5.19-.69-4.83-.87-3.3.25-.69 3.55z" class="cls-1"/><path d="m673.55 554.37-2.89-3.7-1.48-4.33-3.02-3.42-3.45-2.97-1.1-4.96-3.06-3.37-4.23-2.18-3.33-3.02-3.23-3.14-3.26-3.12-3.69-2.6-3.85-2.38-3.74-2.51-3.3-3.11-2.73-3.93-4.31-1.72-3.9-2.29-3.51-2.87-3.47-2.94-4.12-1.98-3.57-2.79-4.09-2.02-3.94-2.25-3.2-3.32-4.11-1.99-3.52-2.84-2.9-3.69-3.83-2.39-4.37-1.7-3.54-2.81-3.34-3.05-3.56-2.8-2.97-3.44-3.14-3.24-3.74-2.76-1.56-4.52-3.54-3.07-1.74-4.24-1.57-4.24-.68-4.46-.95-4.35-1.22-4.51.17-4.64 2.16-4.19 1.66-4.2 2.78-3.79 1.23-4.55 2.78-3.62 1.82-4.23 2.89-3.54 2.96-3.48 1.29-4.59 3.56-3.08 2.49-3.79 2.5-3.78 2.42-3.83 2.33-3.89 2.91-3.58 1.77-4.21 2.53-3.85.6-4.71 2.72-3.83-.13-4.82.92-4.4 2.83-4.03-1.16-4.76 1.07-4.42-.92-4.52.17-4.47.38-4.56.42-4.68-1.83-2.65-.93-4.4 1.21-4.76-1.55-4.32-2.79-3.91.21-4.77-2.92-3.71-1.23-4.33-1.79-4.12-1.84-4.12-3.16-3.33-1.11-4.67-2.74-3.61-3.6-2.89-2.87-3.46-2.8-3.56-3.59-2.76-3.58-2.72-3.05-3.41-4.11-1.99-2.95-3.79-4.27-1.7-4.75-.59-4.04-1.88-3.62-3.05-4.49-.79-4.45-.72-4.17-1.9-4.61.36-4.44-.26-4.38-1.92-4.53.08-4.27.96-4.28.64-4.16 1.24-4.24.91-4.52 1.06-4.25 1.7-4.25 1.71-4.04 2.28-4.13 2.05-4.27 1.66-4.48 1.07-4.32 1.51-4.25 1.72-4.36 1.39-4.58.7-4.07 2.25-4.82-.02-4.22 1.78-3.87 2.87-4.74.24-4.58.66-4.28 1.6-3.62 3.57-4.97-.39-4.34 1.42-3.68 3.35-4.65.63-4.68 1.24-3.89 2.97-3.83 2.9-4.95 1.05-3.41 3.04-2.67 3.71-3.38 3.03-3.12 3.44-.38 4.83-1.71 4.1-1.32 4.28-1.68 4.32.74 4.6-.17 4.49-1.47 4.57.91 4.5 2 4.34-1.69 4.76 1.03 4.44 2.62 4.16-.35 4.63.21 4.55.86 4.43.78 4.45.23 4.55 1.34 4.36 2.32 4.22-.19 4.62.62 4.49-.68 4.62.23 4.5.38 4.48.49 4.37.14 4.41v4.41l.11 4.42.19 4.43 1.02 4.43-2.51 4.39 1.39 4.51-.18 4.51.4 4.51-1.56 4.49 1.81 4.54.15 4.51-1.34 4.47-.51 4.49 1.61 4.55-1.63 4.46.73 4.53.27 4.52-1.49 4.47-.31 4.51.42 4.53-.05 4.51.87 4.54-1.58 4.48 1.06 4.54.03 4.52-1.61 4.5.84 4.53-.48 4.52 1.25 4.52-1.42 4.52.76 4.51.27 4.51.61 4.5-.3 4.53-.99 4.56-.05 4.53-.03 4.54.44 4.51.71 4.49 1.46 4.41-1.27 4.66 2.11 4.33-.91 4.66.39 4.52 2.49 4.21.64 4.46.87 4.42.34 4.52-.12 4.64 1.23 4.36 1.6 4.26.02 4.67 3.22 3.79 1.55 4.22-.65 4.95 3.08 3.71.99 4.44 2.31 3.93.81 4.55 2.68 3.73.51 4.77 3.47 3.29 2.35 4.23 3.1 3.7 3.93 2.75 4.05 2.57 4.39 2.69 5.03.49 4.54-1.73 4.7.45 4.25-1.88 3.58-2.9 3.91-2.18 4.23-2.2 2.84-3.69 2.13-4.12 2.8-3.73 2.03-4.16.41-4.73.06-4.71 2.5-4.03 1.62-4.32-.68-4.76 1.99-4.3-.42-4.65 2.08-4.36.17-4.58.24-4.57-1.29-4.66 1.89-4.48-1.22-4.62 1.33-4.52.15-4.55-.54-4.57-.55-4.57-.42-4.56 1.38-4.52-.17-4.56-.26-4.57.58-3.5.93-4.45.53-4.54 2.65-4.03-.49-4.88 3.1-3.72 1.1-4.44 2.5-3.78 2.39-3.84 3.44-2.92 3.65-2.67 4.3-1.61 4.63-1.05 4.17 2.92 4.55.26 3.72 2.68 4.73.66 4.2 1.9 2.77 3.99 4.67 1.3 3.03 3.5 3.14 3.3 4.46 1.79 2.16 4.36 4.53 1.8 1.6 4.87 4.9 1.5 2.9 3.52 3.14 3.28 1.95 4.42 4.3 2.18 2.11 4.26 4.33 2.18 3.01 3.42 2.94 3.46 1.81 4.53 4.75 1.75 2.83 3.56 3.11 3.29 1.77 4.64 4.21 2.21 2.74 3.71 3.63 2.75 2.95 3.59 5.01.85 2.64 4.19 3.83 2.59 4.24 1.9 4.57 1.01 4.24 1.64 4.18 1.8 4.15 2.02h4.71l4.39 1.11 4.45.92 4.45 1.86 4.65.12 4.47-2.25 4.42-.83 4.62-.08 4.79-.25 4.13-2.22 3.8-2.71 2.99-3.59 3.08-3.28 2.45-3.76 2.78-3.58 1.66-4.21.65-4.49 1.96-4.22-.29-4.58.56-4.52-.2-4.54-.34-4.56-1.58-4.34-1.71-4.23-.89-4.46.16-4.88ZM491.59 359.85l-3.73-2.53-4.43-1.24-3.62-2.83-.91-4.81-3.64-3-1.84-4.09-.74-4.45-1.66-4.2 1.55-4.63-1.39-4.31-.2-4.47 1.96-4.1.92-4.32 2.75-3.46 2.48-3.81 2.1-4.19 4.17-2.36 2.97-3.43 3.3-3.25 4.64-.84 3.97-2.35 4.58.86 4.47-.28 4.99-.75 2.88 4.21 3.29 2.98 3.51 3.37 1.77 4.4.39 4.73.96 4.54-.59 4.71.61 4.56.97 4.58-1.22 4.64.67 4.43-1.1 4.29-1.56 4.12-2.64 3.52-3.15 2.96-2.53 3.65-3.51 2.7-4.29 1.21-3.93 2.04-4.24 1.6-4.51.19-4.46-.59Z" class="cls-1"/><path d="m493.09 354.52-4.64.35-2.87-3.5-2.96-3.05-2.02-3.75-1.59-3.93-1.9-3.85-1.85-4-.06-4.37.27-4.43.61-4.31-.4-4.63 2.69-3.7 2.57-3.79 1.84-4.41 3.99-2.65 3.27-3.2 3.07-3.69 4.35-.91 3.9-1.9 4.32.37 4.15.36 3.86 1.51 4.36 1.68 1.79 4.77 1.72 4.55 1.78 4.61.13 4.89 1.16 4.53-.63 4.73.18 4.64-1.14 4.55.84 4.86-2 3.97-2.14 3.81-3.81 2.34-3.39 2.36-3.33 2.48-3.62 2.29-4.09 1.33-4.32-.49-4.27.56-4.44 2.96 1.81 5.69 4.56-1.41 4.42.97 4.3-1.15 3.98-1.97 4.78.1 3.49-2.91 3.36-2.83 3.41-2.76 2.78-3.41 3.32-3.24 1.57-4.21-.25-4.58 1.41-4.19-.25-4.38.82-4.39-1.2-4.3-.81-4.2-.05-4.25-1.01-4.12.95-4.6-1.75-4.01-2.67-3.51-2.85-2.99-1.85-3.76-3.84-1.59-3.48-1.92-3.92-.86-4.81-1.9-4.67 2.26-5.04.02-4.65 2.06-3.05 4.3-4.63 2.21-3.96 3.17-2.39 4.51-1.44 4.12-3.42 2.84-.98 4.19-1.59 3.88-1.15 4.07 1.08 4.26-.28 4.37.06 4.43 1.14 4.27-.67 4.87 3.95 3.25 1.19 4.3 1.95 4.05 3.14 3.18 3.58 2.56 2.97 3.69 4.44 1.4 3.64-2.23.95-3.52z" class="cls-1"/><path d="m676.22 553.43-.35-4.73-2.45-3.85-3.65-2.99-1.58-4.35-2.2-4.03-3.12-3.29-4.7-1.7-1.82-4.54-3.24-3.11-4.83-1.67-2.99-3.78-3.32-3.43-4.38-2.08-4.23-2.2-2.84-4.16-4.06-2.45-4.37-2-3.39-3.13-3.37-3.18-4.77-1.04-3.68-2.71-3.69-2.72-3.27-3.33-4.44-1.58-3.75-2.61-2.85-3.9-4.07-2.15-4.62-1.46-2.23-4.57-3.78-2.56-4.74-1.5-2.64-3.91-2.87-3.6-3.19-3.24-2.95-3.46-2.25-3.95-2.88-3.52-3.48-3.43-.73-4.69-.89-4.21.93-4.28.5-4.1.77-4.08 1-4.08 1.66-3.89 2.07-3.7 2.23-3.84 2.19-3.88 1.53-4.32 4.5-2.35 1.29-4.48 2.57-3.64 2.04-3.97 3.64-2.95.73-4.78 2.04-3.93 3.26-3.25 2.44-3.74.42-4.74 3.2-3.4.88-4.44 1.11-4.28 2.61-3.83 1.27-4.28.33-4.47.55-4.41-.63-4.47 1.53-4.62-1.4-4.58-.56-4.59.98-4.8-1.41-4.52-.11-4.38-1.99-4.05.45-4.55-1.84-4.01-1.54-4.06-2.13-4.13-1.45-4.4-1.01-4.69-2.03-4.22-2.21-4.16-2.75-3.81-3.1-3.53-3.79-2.92-1.84-4.61-4.42-2.15-2.38-4.22-3.41-3.19-4.79-1.39-3.69-2.73-3.89-2.42-3.7-2.77-3.6-3.09-4.31-1.75-4.49-1.24-3.99-2.64-5.02.67-4.49-.79-4.15-2.93-4.79 1.12-4.54-.92-4.59.68-4.76-.69-4.51 1.63-4.98-.5-4.1 2.85-4.53 1.3-4.43 1.62-4.26 2.05-4.55 1.36-4.9.43-4.38 1.69-3.91 3.06-4.83.41-4.28 2-4.13 2.45-4.61 1.02-4.88.21-4.43 1.59-4.33 1.9-4.69.77-4.54 1.3-4.08 2.67-4.02 2.73-4.87.12-4.64.87-3.9 2.99-4.83.39-3.96 2.69-4.84.38-4.05 2.26-3.97 2.37-2.94 3.84-4.63 1.53-2.2 4.09-3.73 2.65-2.51 3.71-1.52 4.22-1.11 4.29-.85 4.3-2.25 3.96-.38 4.41.1 4.41-.32 4.58-.11 4.6.61 4.57-1.22 4.74 2.35 4.37-1.03 4.81 1.5 4.44.44 4.61 1.17 4.48.54 4.58 1.19 4.52 1.07 4.55 1.53 4.48-1.59 4.97 1.68 4.46-.46 4.73 2.06 4.48.9 4.62-1.53 4.74 1.81 4.65-.88 4.52-.54 4.51 1.56 4.54-1.82 4.5 1.73 4.54-2.45 4.48 2.3 4.56-.5 4.52-.13 4.52-1.75 4.48 1.5 4.55-1.5 4.49 1.55 4.56-.26 4.52-.33 4.51-1.91 4.47 2.14 4.58-.54 4.51-.18 4.52-2.13 4.47 1.25 4.55-.93 4.5.25 4.53-.98 4.55 2.18 4.61-1.97 4.54-.19 4.57.38 4.58.99 4.58.11 4.57-.22 4.57-.62 4.58 1.28 4.54-.1 4.57-.11 4.58-1.29 4.63.18 4.58 2.27 4.44.53 4.54-.6 4.62-.86 4.67.76 4.53.87 4.51 1.54 4.41.73 4.51 1.01 4.46.13 4.6.96 4.57 1.56 4.45-.12 4.81 1.79 4.38.67 4.65 1.17 4.53 1.11 4.55 2.15 4.22 2.14 4.19 1.24 4.5 1.87 4.27 2 4.12.79 4.65 2.23 4.02 2.28 3.96 2.41 3.87 1.91 4.4 3.84 2.75 3.69 2.84 4.15 2.22 4.92-.69 4.34 1.95 4.55-1.5 4.88 1.86 3.89-3.43 4.38-1.14 4.54-1.28 3.19-3.46 4.09-1.84 3.02-3.1 1.8-3.98 1.09-4.23 1.87-3.71 1.35-3.95 3.48-3.22-.79-5.07 1.94-4.21 1.18-4.45 1.5-4.39 1.1-4.5-.4-4.71 1.36-4.48.45-4.59-.96-4.68 1.62-4.52.21-4.61-1.74-4.65 2.1-4.56-1.33-4.64.85-4.56-.21-4.44-.5-4.44 1.17-4.42.1-4.43-.68-4.5.44-4.44 2.25-4.13-.93-5 1.32-4.58 1.87-4.41 2.97-3.89.16-5.19 3.25-3.64 3.74-2.73 1.4-.63.94-2.16 2.02.28.85-.95.59 1.6 1.94-2.28 1.55.48 4.13.65 3.95 1.31 3.42 2.4 3.42 2.22 4.33.82 3.58 2.64 3.78 2.36 3.56 2.67 2.28 4.17 3.08 3.15 3.95 2.21 3.6 2.62 1.88 4.39 4.05 2.17 2.17 4.07 3.83 2.43 3.15 3.1 3.25 2.97 3.47 3.08 2.65 3.86 3.07 3.46 2.63 3.88 3.91 2.65 3.19 3.34 3.23 3.31 3.12 3.4 4.36 2.16 2.22 4.33 3.12 3.43 4.41 2.03 3.17 3.45 3.65 2.91 3.32 3.44 4.22 2.12 4.23 2.03 4.2 2.07 4.11 2.27 4.69.81 4.02 2.79 4.71.61 4.47 1.7 4.9-1.3 4.58.98 4.65-.77 4.71 1.15 4.68.55 4.22-2.23 4.09-2 4.07-1.79 4.6-.81 4.39-1.63 2.26-4.48 2.88-2.95 3.14-2.78 2.45-3.4 1.82-3.78 2.08-3.71 2.12-3.85.55-4.29-.09-4.37.32-4.3-1.62-4.22-.44-4.2.36-4.36-.28-4.33-.28-4.4-1.42-4.1-1.3-4.12-4.1-1.89-4.58.47.51 4.32 1.37 4.44.49 4.68.97 4.51 1.08 4.51.28 4.64.17 4.61.3 4.64-1.39 4.47-.85 4.49-1.72 4.22-1.41 4.49-3.28 3.33-3.93 2.44-3.19 3.33-3.52 3.69-4.82 1.11-4.59 1.82-5.02-1.05-4.74-.1-4.69-.6-4.73.1-4.96.81-4.64-1.25-4.17-2.71-4.79-.69-4.48-1.68-3.64-3.32-4.77-1.21-3.65-3.08-4.46-1.94-3.17-3.66-3.33-3.38-4.05-2.58-2.63-4.09-4.38-2.33-2.56-4.11-2.75-3.93-4.87-1.91-3.29-3.38-1.94-4.43-3.32-3.1-3.8-2.65-2.94-3.46-3.07-3.35-2.7-3.71-2.84-3.59-4.34-2.08-3.15-3.27-2.08-4.39-4.73-1.6-3.25-3.16-2.36-4.19-3.45-3.16-3.52-3.09-4.58-1.77-3.66-2.86-4.33-1.83-3.04-4.07-4.2-2.25-4.69-.94-4.52-1.67-4.81 1.83-4.8-1.48-4.35 2.04-4.57 1.73-2.86 3.95-2.91 3.65-1.74 4.37-1.97 4.14-1.51 4.34-3.25 3.77-1.62 4.42-.77 4.67-1.27 4.56.97 4.88-1.93 4.49.23 4.73.85 4.73-1.48 4.62 1.38 4.71-1.7 4.66.57 4.68-1.36 4.65.64 4.69.56 4.69-.66 4.65-.74 4.73.27 4.81-.63 4.73-1.44 4.62 1.07 5-.81 4.74-2.03 4.45-2.18 4.24-.91 4.57-.88 4.67-2.53 3.99-2.01 4.26-2.51 4.06-4.44 1.62-2.82 3.38-4.33.77-3.78 2.32-4.31 1.44-4.27-2.08-4.66-1.4-5.09-.88-2.91-4.28-4.17-3.01-2.54-4.23-3.12-3.96-.93-5.01-1.57-4.66-3.18-4.02-.54-4.6-1.27-4.3-2.59-3.87-1.4-4.27.19-4.71-1.11-4.33-1.09-4.34-.6-4.44-.99-4.35-1.96-4.19.42-4.61-1.74-4.26-.21-4.49-1.9-4.28-.09-4.51.19-4.52-1.08-4.4-.72-4.45-.01-4.5-.05-4.49 1.09-4.54-.05-4.48-.32-4.46-2.11-4.47.09-4.54.19-4.54 1.37-4.55-.54-4.53.76-4.53-1.3-4.53 1-4.52-1.38-4.55 1.26-4.51-1.17-4.56 2.13-4.49-.38-4.53-.96-4.56 1.11-4.51-1.77-4.58.12-4.53 1.76-4.49.22-4.53.19-4.53.43-4.52-2.02-4.59.14-4.52 1.73-4.5.53-4.64-2.07-4.67.9-4.63.94-4.63.71-4.64-1.39-4.66 1.41-4.63-.87-4.65.76-4.65-1.12-4.63.49-4.55-.54-4.53.79-4.61-1.31-4.45-1.09-4.44-.33-4.53-.35-4.53-1.22-4.4-1.14-4.4.52-4.7-.38-4.52-1.45-4.32-2.08-4.22.07-4.62-1.36-4.37.47-4.63-.25-4.51-2.38-4.37 1.12-4.59-.45-4.54.82-4.69.01-4.8 1.11-4.65 1.97-4.37 3.37-3.52 1.58-4.58 4.06-2.6 3.08-3.57 4.22-1.94 3.58-3.09 4.46-1.39 4.15-2.07 4.47-1.23 4.14-1.87 4.66-.38 3.82-2.8 4.16-1.85 4.88.34 4.22-1.59 3.8-3.14 4.46-1.17 4.64-.63 4.08-2.28 4.6-.75 4.47-1.13 4.56-.86 3.84-2.98 4.41-1.26 4.74-.37 4.12-2.11 4.44-.73 3.77-2.49 4.14-1.5 4.23-1.22 4.28-.99 3.65-3.04 4.35-.83 4.54.48 4.19-2.02 4.43.36 4.67 1.61 5.01-1.61 4.72 1.13 4.34 2.42 4.35 1.97 4.83.66 4.86.92 4.19 2.44 3.65 2.99 3.49 3.1 4.58 1.57 2.91 3.79 4.51 1.92 2.57 4.04 3.21 3.35 3.14 3.41 2.5 3.93 3.32 3.34 2.41 3.99 2.22 4.1 1.8 4.29 1.62 4.36.59 4.68 1.71 4.27 1.73 4.31.31 4.46 2.12 4.15.75 4.4-1.3 4.62.59 4.39.63 4.46 1.02 4.53.17 4.6-1.39 4.41-1.11 4.4-.46 4.58-1.23 4.4-3.45 3.52-.8 4.55-1.08 4.51-4.06 2.97-.84 4.69-3.21 3.35-.87 4.77-2.42 3.82-4.07 2.97-2.62 3.9-2.92 3.71-1.77 4.47-2.51 4-2.26 3.8-2.86 3.43-2.3 3.81-2.46 3.79-.67 4.53-1.94 4.14.26 4.57-.03 4.44-1.05 4.61.94 4.49 3.5 3.56-.35 5.07 2.84 3.67 2.17 4.02 3.32 3.18 3.5 2.92 2.16 4.14 2.73 3.73 3.65 2.73 3.96 2.32 4.39 1.69 2.59 4.05 4.55 1.4 3.13 3.38 4.25 1.78 2.87 4.01 3.5 3.14 4.45 1.7 4.29 1.96 3.9 2.53 2.99 3.91 3.84 2.62 4.65 1.42 3.39 3.29 4.72 1.37 2.68 4.25 3.8 2.65 4.49 1.78 3.45 3.14 3.73 2.81 2.84 3.81 3.53 3.04 2.72 3.85 4.63 2.03 3.04 3.59 1.46 4.75 2.77 3.68 3.25 3.52 2.47 4.1 2.11 3.29 3.81-2.07zM563.71 117.29l-1.43 4.82-2.99 3.55-1.01 4.58-1.74 4.18-1.72 4.33-1.48 4.59 1.7 4.6 1.29 4.37-.19 5.05 3.06 3.74 4.43 1.89 3.31 3.42 4.66-.85 4.44-.19 4.27-1.59 4.08-2.16 2.94-3.66 4.18-.65 3.54-.76 3.9-.35 4.32 1.26 4.44 1.03 4.54-.49 4.39-.94 4.55-.59 3.69-2.73 4.61-1.57 2.56-4.01.67-4.7 1.24-4.12 1.86-4.32-1.1-4.46-1.56-4.21-.72-4.53-3.02-3.53-.83-.91-1.24-4.52-3.05-3.27-3.69-2.52-3.62-2.52-4.07-1.68-4.05-1.79-4.28-1.47-4.52-.18-4.49.41-4.25 1.52-4.07 1.74-4 1.75-4.12 1.57-3.74 2.34-3.38 2.83-3.36 2.83-3.65 2.62z" class="cls-1"/><path d="m562.55 115.24-3.84 2.92-1.21 4.72-1.51 4.35-3.62 3.56.4 4.94-.69 4.49-.93 4.53 1.02 4.49-1.1 5 2.86 3.96 2.77 3.69 2.55 4.47 4.61 2.25 4.68 2.14 5.17-.09 3.87-1.84 4.45-.26 3.42-2.63 3.37-3.46 4.65-1.19 4.4-1.26 4.01 2.23 4.46.17 4.42-1.66 4.48 1.84 4.26-1.38 3.56-2.84 3.82-2.29 3.97-2.23 2.84-3.55 3.29-3.43 1.28-4.53-.06-4.68 1.29-4.66-1.6-4.49-1.07-4.52-1.79-4.29-1.8-4.34-2.24-4.21-3.84-2.9-3.57-2.98-3.23-3.47-4.37-1.79-4.5-1.09-4.33-1.28-4.35-2.26-4.66 1.15-4.67-.28-4.36 1.66-3.97 2.4-5.17-.26-4.12 2.27-3.05 3.8-3.57 2.87-3.58 2.87-3.48 3.03-.68 3.55 2.28 2.47 2.34-.55 3.72-2.85 4.52-1.8 3-3.63 3.72-2.78 4.29-1.79 4.44-1.22 4.27-1.8 4.62-.24 4.63-.55 4.19.27 3.73 2.07 4.06 1.05 3.36 2.47 2.27 3.61 2.98 2.74 3.46 2.63 2.03 3.7 1.36 4 1.28 4.03-.05 4.24-.4 4.37-.49 4.58-3.7 2.9-2.38 3.89-4.1 1.83-4.2 1.31-4.37.24-4.3.45-4.51.67-4.21-.61-3.81-1.87-4.14.19-4.23 1.13-2.61 3.6-3.65 2.15-3.45 2.67-4.3.78-4.22-.53-4.62-.29-2.64-4.28-2.16-4.11-1.13-4.51-.33-4.62.31-4.22 1.58-3.95.93-4.07 2.3-3.51 1.05-4.27 3.49-2.61-.5-4.22-1.98-2.57z" class="cls-1"/></svg>